<svg width="800" height="800" viewBox="0 0 800 800" fill="none" xmlns="http://www.w3.org/2000/svg">
<rect width="800" height="800" rx="191" fill="#0A2E33"/>
<path d="M604.545 205.175C579.318 196.653 551.591 193 525 193C480.682 193 432.955 202.74 400 229.526C367.045 202.74 319.318 193 275 193C230.682 193 182.955 202.74 150 229.526V586.263C150 592.351 155.682 598.438 161.364 598.438C163.636 598.438 164.773 597.221 167.045 597.221C197.727 581.393 242.045 570.435 275 570.435C319.318 570.435 367.045 580.175 400 606.961C430.682 586.263 486.364 570.435 525 570.435C562.5 570.435 601.136 577.74 632.955 596.003C635.227 597.221 636.364 597.221 638.636 597.221C644.318 597.221 650 591.133 650 585.045V229.526C636.364 218.568 621.591 211.263 604.545 205.175ZM604.545 533.909C579.545 525.386 552.273 521.734 525 521.734C486.364 521.734 430.682 537.562 400 558.26V278.227C430.682 257.529 486.364 241.701 525 241.701C552.273 241.701 579.545 245.354 604.545 253.877V533.909Z" fill="#F4F4F4"/>
<path d="M525 339.105C545 339.105 564.318 341.296 581.818 345.436V308.423C563.864 304.77 544.546 302.579 525 302.579C486.364 302.579 451.364 309.64 422.727 322.79V363.212C448.409 347.627 484.091 339.105 525 339.105Z" fill="#F4F4F4"/>
<path d="M422.727 387.563V427.986C448.409 412.401 484.091 403.878 525 403.878C545 403.878 564.318 406.07 581.818 410.21V373.197C563.864 369.544 544.546 367.352 525 367.352C486.364 367.352 451.364 374.658 422.727 387.563Z" fill="#F4F4F4"/>
<path d="M525 432.368C486.364 432.368 451.364 439.429 422.727 452.579V493.001C448.409 477.416 484.091 468.894 525 468.894C545 468.894 564.318 471.085 581.818 475.225V438.212C563.864 434.316 544.546 432.368 525 432.368Z" fill="#F4F4F4"/>
</svg>
